<svg width="360" height="512" viewBox="0 0 360 512" fill="none" xmlns="http://www.w3.org/2000/svg">
<path d="M313.061 125.87L106.22 6.44902C93.1549 -1.09422 81.3171 -1.79515 72.769 3.17235L14.3868 37.1C14.4138 37.084 14.4438 37.072 14.4718 37.055C5.98466 41.9385 0.717182 52.3824 0.674186 67.2529L0.000257309 304.931C-0.0847342 334.763 20.8962 371.103 46.8576 386.091L253.7 505.511C267.14 513.269 279.27 513.772 287.866 508.329C287.627 508.48 287.395 508.643 287.149 508.787L345.529 474.86C353.968 469.956 359.199 459.529 359.242 444.708L359.916 207.03C360.003 177.191 339.022 140.859 313.061 125.87Z" fill="#46AD33"/>
<path d="M345.531 474.859L287.151 508.786C295.59 503.881 300.823 493.454 300.864 478.634L359.244 444.707C359.202 459.527 353.969 469.955 345.531 474.859Z" fill="#53C73E"/>
<path d="M14.3868 37.0999L72.767 3.17333C81.3151 -1.79418 93.153 -1.09325 106.218 6.45L47.8375 40.3766C34.7728 32.8334 22.936 32.1314 14.3868 37.0999Z" fill="#6ACB58"/>
<path d="M301.538 240.957L359.918 207.029L359.244 444.707L300.864 478.634L301.538 240.957Z" fill="#6ACB58"/>
<path d="M47.8385 40.3766L106.22 6.44897L313.061 125.87L254.681 159.797L47.8385 40.3766Z" fill="#89DA7F"/>
<path d="M254.681 159.797L313.061 125.87C339.023 140.858 360.002 177.192 359.918 207.03L301.538 240.956C301.623 211.118 280.642 174.786 254.681 159.797Z" fill="#BCE9B4"/>
<path d="M92.911 148.553C91.0682 147.488 89.2164 146.801 87.3455 146.442C66.7976 142.522 58.2435 157.008 66.3227 184.673C77.9485 224.512 93.6469 262.123 113.888 297.182C134.129 332.241 158.88 364.683 187.625 394.776C192.684 400.075 197.552 404.029 202.106 406.66C215.518 414.403 226.254 410.682 231.454 396.05C232.709 392.529 232.802 388.431 231.481 383.506C228.289 371.594 197.859 328.516 188.733 322.67C188.47 322.502 188.211 322.344 187.956 322.198C181.45 318.442 177.806 321.602 174.709 325.042C171.018 329.139 166.738 329.138 162.032 326.421C158.981 324.659 155.754 321.76 152.391 318.093C143.783 308.711 136.261 298.71 130.058 287.957C123.855 277.223 118.964 265.723 115.159 253.604C111.369 241.56 111.451 232.762 120.389 230.957C125.121 230.001 129.887 228.387 129.531 220.127C129.06 209.349 106.997 161.504 98.2575 152.752C96.4756 150.97 94.6968 149.585 92.911 148.553Z" fill="white"/>
<path d="M162.527 187.343C158.979 185.294 155.448 183.572 151.976 182.205C148.77 180.94 146.581 183.132 147.071 187.102C147.52 190.683 150.005 194.492 152.842 196.13C153.148 196.307 153.457 196.458 153.77 196.581C156.641 197.715 159.558 199.139 162.487 200.83C164.13 201.779 165.776 202.81 167.421 203.923C181.549 213.483 194.968 228.533 205.217 246.284C215.16 263.507 221.252 281.861 222.378 297.987C222.758 303.493 222.549 308.676 221.752 313.381C221.193 316.737 223.321 321.46 226.508 323.94C226.847 324.2 227.186 324.433 227.525 324.63C230.325 326.247 232.81 325.369 233.312 322.369C234.283 316.613 234.543 310.298 234.077 303.581C232.718 284.152 225.431 262.127 213.549 241.538C201.353 220.423 185.348 202.495 168.475 191.073C166.493 189.732 164.508 188.486 162.527 187.343Z" fill="white"/>
<path d="M162.476 209.833C160.435 208.654 158.404 207.629 156.401 206.768C153.179 205.381 150.901 207.448 151.295 211.373C151.665 215 154.195 218.945 157.097 220.621C157.346 220.764 157.596 220.891 157.848 220.999C159.364 221.654 160.901 222.43 162.447 223.321C163.52 223.941 164.596 224.616 165.671 225.347C175.216 231.807 184.331 242.056 191.338 254.194C198.039 265.802 202.136 278.042 202.874 288.677C203.076 291.544 203.02 294.288 202.721 296.811C202.299 300.274 204.565 304.963 207.777 307.291C208.026 307.463 208.277 307.626 208.526 307.771C211.44 309.453 213.974 308.426 214.363 305.241C214.768 301.816 214.844 298.134 214.572 294.26C213.609 280.337 208.31 264.42 199.67 249.446C190.716 233.946 179.014 220.818 166.726 212.495C165.308 211.538 163.89 210.649 162.476 209.833Z" fill="white"/>
<path d="M162.302 232.241C161.923 232.023 161.547 231.814 161.174 231.614C157.937 229.902 155.41 231.593 155.528 235.386C155.651 239.091 158.249 243.438 161.382 245.246C161.461 245.292 161.54 245.336 161.62 245.378C161.863 245.507 162.11 245.642 162.358 245.786C162.874 246.084 163.398 246.413 163.92 246.771C173.699 253.393 182.614 268.322 183.383 279.366C183.445 280.294 183.451 281.18 183.4 282.004C183.171 285.596 185.601 290.223 188.836 292.341C188.973 292.43 189.111 292.518 189.239 292.593C192.298 294.359 194.889 293.124 195.109 289.684C195.202 288.187 195.199 286.605 195.082 284.958C193.823 266.916 180.604 244.504 164.974 233.919C164.082 233.314 163.186 232.751 162.302 232.241Z" fill="white"/>
</svg>
