<svg width="360" height="512" viewBox="0 0 360 512" fill="none" xmlns="http://www.w3.org/2000/svg">
<path d="M313.092 125.883L106.23 6.44967C93.1643 -1.09433 81.3253 -1.79533 72.7763 3.17267L14.3883 37.1037C14.4153 37.0877 14.4453 37.0757 14.4733 37.0587C5.98526 41.9427 0.717253 52.3877 0.674253 67.2597L0.000257335 304.962C-0.0847427 334.797 20.8983 371.14 46.8623 386.13L253.725 505.562C267.166 513.321 279.298 513.824 287.895 508.38C287.656 508.531 287.423 508.694 287.177 508.838L345.563 474.908C354.003 470.003 359.235 459.575 359.278 444.753L359.952 207.051C360.039 177.209 339.056 140.873 313.092 125.883Z" fill="#155C92"/>
<path d="M345.565 474.907L287.179 508.837C295.619 503.932 300.853 493.504 300.894 478.682L359.28 444.752C359.238 459.573 354.004 470.002 345.565 474.907Z" fill="#1A6FB0"/>
<path d="M14.3882 37.1036L72.7742 3.17364C81.3232 -1.79436 93.1622 -1.09336 106.228 6.45064L47.8422 40.3806C34.7762 32.8366 22.9382 32.1346 14.3882 37.1036Z" fill="#1D81CD"/>
<path d="M301.568 240.981L359.954 207.05L359.28 444.752L300.894 478.682L301.568 240.981Z" fill="#1D81CD"/>
<path d="M47.8431 40.3806L106.23 6.44958L313.092 125.883L254.706 159.813L47.8431 40.3806Z" fill="#3D99E2"/>
<path d="M254.706 159.813L313.092 125.883C339.057 140.873 360.038 177.21 359.954 207.051L301.568 240.981C301.653 211.14 280.67 174.804 254.706 159.813Z" fill="#5AAAE7"/>
<path d="M121.555 295.841L121.702 243.911L160.725 266.441L160.834 228.141C160.96 183.693 184.655 173.14 219.159 193.061C235.683 202.601 249.882 212.211 254.025 215.236L253.893 261.681L229.959 247.878C211.199 237.047 207.537 245.197 207.494 260.229L207.4 293.39L252.147 319.225L246.176 367.793L207.251 345.32L206.875 478.565L160.2 451.617L160.578 318.372L121.555 295.841Z" fill="#3D5A98"/>
<path d="M160.834 229.185L160.725 267.485L121.702 244.955L121.555 296.885L160.578 319.415L160.203 451.566L206.878 478.514L207.253 346.363L246.177 368.836L252.147 320.268L207.4 294.433L207.494 261.272C207.537 246.24 211.198 238.09 229.959 248.921L253.893 262.724L254.025 216.279C249.883 213.253 235.684 203.644 219.159 194.104C184.655 174.184 160.96 184.738 160.834 229.185Z" fill="white"/>
</svg>
