<svg width="360" height="512" viewBox="0 0 360 512" fill="none" xmlns="http://www.w3.org/2000/svg">
<path d="M313.092 125.883L106.23 6.44967C93.1643 -1.09433 81.3253 -1.79533 72.7763 3.17267L14.3883 37.1037C14.4153 37.0877 14.4453 37.0757 14.4733 37.0587C5.98526 41.9427 0.717253 52.3877 0.674253 67.2597L0.000257335 304.962C-0.0847427 334.797 20.8983 371.14 46.8623 386.13L253.725 505.562C267.166 513.321 279.298 513.824 287.895 508.38C287.656 508.531 287.423 508.694 287.177 508.838L345.563 474.908C354.003 470.003 359.235 459.575 359.278 444.753L359.952 207.051C360.039 177.209 339.056 140.873 313.092 125.883Z" fill="#7F33AD"/>
<path d="M345.565 474.907L287.179 508.837C295.619 503.932 300.853 493.504 300.894 478.682L359.28 444.752C359.238 459.573 354.004 470.002 345.565 474.907Z" fill="#943EC7"/>
<path d="M14.3883 37.1036L72.7743 3.17364C81.3233 -1.79436 93.1623 -1.09336 106.228 6.45064L47.8423 40.3806C34.7763 32.8366 22.9383 32.1346 14.3883 37.1036Z" fill="#A258CB"/>
<path d="M301.568 240.981L359.954 207.05L359.28 444.752L300.894 478.682L301.568 240.981Z" fill="#A258CB"/>
<path d="M47.8433 40.3806L106.23 6.44958L313.092 125.883L254.706 159.813L47.8433 40.3806Z" fill="#B77FDA"/>
<path d="M254.706 159.813L313.092 125.883C339.057 140.873 360.038 177.21 359.954 207.051L301.568 240.981C301.653 211.14 280.67 174.804 254.706 159.813Z" fill="#D5B4E9"/>
<path d="M144.691 364.464C119.014 349.639 115.973 347.771 105.833 341.38C96.4603 335.482 91.3703 330.737 87.9843 327.264C83.5013 322.672 80.3083 318.429 76.9533 312.618C73.5983 306.807 71.5243 301.918 69.7913 295.752C68.4843 291.095 66.9373 284.345 66.5383 273.318C66.1123 261.4 66.0233 257.849 66.1063 228.344C66.1903 198.839 66.2973 195.394 66.7903 184.007C67.2503 173.483 68.8303 168.538 70.1593 165.403C71.9213 161.255 74.0163 158.774 77.3933 156.849C80.7703 154.924 83.9773 154.377 88.4713 154.967C91.8663 155.41 96.9663 156.548 106.342 161.474C116.485 166.794 119.525 168.436 145.203 183.261C170.887 198.089 173.927 199.957 184.067 206.348C193.44 212.246 198.531 216.991 201.916 220.464C206.399 225.056 209.592 229.299 212.947 235.11C216.302 240.921 218.376 245.81 220.109 251.976C221.41 256.63 222.963 263.383 223.362 274.403C223.788 286.321 223.877 289.879 223.794 319.385C223.71 348.89 223.603 352.328 223.11 363.715C222.65 374.247 221.064 379.188 219.741 382.326C217.979 386.474 215.884 388.955 212.507 390.88C209.13 392.805 205.923 393.352 201.429 392.762C198.034 392.319 192.934 391.181 183.558 386.254C173.417 380.935 170.375 379.292 144.691 364.464ZM145.262 163.354C119.144 148.274 115.869 146.511 105.61 141.124C95.3703 135.748 88.3743 133.586 82.2483 132.78C75.9193 131.956 70.5433 132.641 65.1803 135.698C59.8173 138.754 56.5133 143.022 54.0333 148.866C51.6343 154.524 49.9873 161.617 49.4883 173.114C48.9823 184.628 48.8613 188.327 48.7763 218.338C48.6913 248.35 48.7913 252.176 49.2293 264.235C49.6623 276.269 51.2633 285.239 53.6233 293.644C56.0613 302.327 59.3303 310.388 64.6593 319.619C69.9883 328.85 75.3423 335.729 81.6553 342.204C87.7673 348.463 94.7513 354.366 104.988 360.82C115.244 367.277 118.517 369.295 144.637 384.374C170.762 399.457 174.036 401.221 184.295 406.607C194.53 411.973 201.531 414.145 207.651 414.947C213.986 415.775 219.362 415.089 224.726 412.033C230.089 408.977 233.393 404.709 235.873 398.865C238.272 393.207 239.919 386.114 240.418 374.617C240.917 363.099 241.045 359.404 241.13 329.393C241.215 299.38 241.109 295.551 240.677 283.496C240.244 271.462 238.643 262.493 236.283 254.087C233.845 245.404 230.576 237.343 225.247 228.112C219.918 218.882 214.564 212.002 208.244 205.523C202.139 199.267 195.148 193.354 184.918 186.911C174.66 180.454 171.386 178.437 145.262 163.354Z" fill="white"/>
<path d="M144.844 310.702C127.143 300.483 112.837 275.703 112.895 255.357C112.952 235.011 127.352 226.805 145.053 237.024C162.76 247.247 177.066 272.026 177.008 292.373C176.95 312.72 162.551 320.925 144.844 310.702ZM145.109 217.115C117.838 201.369 95.6513 214.006 95.5623 245.35C95.4733 276.694 117.516 314.867 144.787 330.612C172.064 346.361 194.245 333.721 194.334 302.377C194.424 271.033 172.387 232.863 145.109 217.115Z" fill="white"/>
<path d="M196.495 231.251C190.119 227.57 184.933 230.525 184.912 237.852C184.891 245.172 190.042 254.095 196.419 257.776C202.789 261.454 207.975 258.499 207.995 251.179C208.017 243.852 202.866 234.928 196.495 231.251Z" fill="white"/>
</svg>
