<svg width="360" height="512" viewBox="0 0 360 512" fill="none" xmlns="http://www.w3.org/2000/svg">
<path d="M313.115 125.883L106.253 6.44997C93.187 -1.09403 81.348 -1.79503 72.799 3.17297L14.411 37.104C14.438 37.088 14.468 37.076 14.496 37.059C6.00796 41.943 0.739958 52.388 0.696958 67.26L0.0229624 304.962C-0.0620376 334.797 20.921 371.14 46.885 386.13L253.748 505.562C267.189 513.321 279.321 513.824 287.918 508.38C287.679 508.531 287.446 508.694 287.2 508.838L345.586 474.908C354.026 470.003 359.258 459.575 359.301 444.753L359.975 207.051C360.062 177.209 339.079 140.873 313.115 125.883Z" fill="#40A559"/>
<path d="M345.588 474.907L287.202 508.837C295.642 503.932 300.876 493.504 300.917 478.682L359.303 444.752C359.261 459.573 354.027 470.002 345.588 474.907Z" fill="#4DBA69"/>
<path d="M14.411 37.104L72.797 3.17401C81.346 -1.79399 93.185 -1.09299 106.251 6.45101L47.865 40.381C34.799 32.837 22.961 32.135 14.411 37.104Z" fill="#65C27C"/>
<path d="M301.591 240.981L359.977 207.05L359.303 444.752L300.917 478.682L301.591 240.981Z" fill="#65C27C"/>
<path d="M47.866 40.381L106.253 6.45001L313.115 125.883L254.729 159.813L47.866 40.381Z" fill="#7BCC92"/>
<path d="M254.729 159.813L313.115 125.883C339.08 140.873 360.061 177.21 359.977 207.051L301.591 240.981C301.676 211.14 280.693 174.804 254.729 159.813Z" fill="#94D6A8"/>
<path d="M212.649 233.995C195.08 203.54 171.662 178.82 146.688 164.39C95.207 134.668 53.176 158.621 52.987 217.763C52.934 236.684 57.181 257.623 65.301 278.615L51.9 326.576L101.444 340.224C115.067 356.653 130.412 370.032 146.038 379.053L146.08 379.077C197.54 408.788 239.572 384.834 239.771 325.697C239.852 297.025 230.229 264.455 212.649 233.995ZM146.131 360.954L146.1 360.936C132.173 352.896 118.517 340.706 106.623 325.693L103.8 322.131L74.398 314.029L82.326 285.64L80.491 281.193C72.77 262.519 68.702 243.723 68.761 226.88C68.921 177.715 103.853 157.808 146.67 182.529C167.395 194.507 186.86 215.048 201.466 240.368C216.071 265.688 224.08 292.758 224.001 316.579C223.838 365.745 188.907 385.652 146.131 360.954Z" fill="white"/>
<path d="M188.89 318.745C186.562 316.053 175.11 302.941 172.977 300.816C172.046 299.89 171.227 299.112 170.469 298.674C169.483 298.105 168.603 298.114 167.719 299.129C166.157 300.911 161.663 304.363 160.3 305.378C159.522 305.951 158.741 306.012 157.782 305.457C157.061 305.041 156.24 304.278 155.242 303.125C152.914 300.433 145.399 293.256 136.513 278.978C129.601 267.867 124.942 256.386 123.592 252.912C122.232 249.443 123.458 248.696 124.623 248.032C125.684 247.44 126.964 246.246 128.139 245.351C129.315 244.467 129.701 243.569 130.484 242.232C131.267 240.883 130.887 239.101 130.3 237.415C129.723 235.734 125.097 219.849 123.165 213.354C121.584 208.06 119.981 206.923 118.671 206.166C118.601 206.126 118.532 206.087 118.463 206.047C118.276 205.939 118.1 205.838 117.934 205.73C116.566 204.858 115.012 203.947 113.458 203.05C111.903 202.152 109.373 201.359 107.221 202.8C105.079 204.259 99.0291 207.266 98.9921 220.459C98.9551 233.652 107.281 251.233 108.447 253.695C109.603 256.163 124.821 292.071 148.197 317.196C153.754 323.183 158.091 327.334 161.476 330.528C164.69 333.556 167.738 335.719 170.513 337.322C172.565 338.507 174.468 339.385 176.177 340.077C180.655 341.888 189.998 341.557 191.954 336.413C193.919 331.274 193.935 325.904 193.358 324.461C192.78 323.006 191.218 321.424 188.89 318.745Z" fill="white"/>
</svg>
