<svg width="360" height="512" viewBox="0 0 360 512" fill="none" xmlns="http://www.w3.org/2000/svg">
<g clip-path="url(#clip0)">
<path d="M313.092 125.883L106.23 6.44967C93.1643 -1.09433 81.3253 -1.79533 72.7763 3.17267L14.3883 37.1037C14.4153 37.0877 14.4453 37.0757 14.4733 37.0587C5.98526 41.9427 0.717253 52.3877 0.674253 67.2597L0.000257335 304.962C-0.0847427 334.797 20.8983 371.14 46.8623 386.13L253.725 505.562C267.166 513.321 279.298 513.824 287.895 508.38C287.656 508.531 287.423 508.694 287.177 508.838L345.563 474.908C354.003 470.003 359.235 459.575 359.278 444.753L359.952 207.051C360.039 177.209 339.056 140.873 313.092 125.883Z" fill="#4A76A8"/>
<path d="M159.882 210.795L125.168 190.753C120.538 188.08 118.21 188.805 115.732 190.705C114.299 191.804 113.864 192.805 116.794 195.146C122.546 199.72 125.782 205.885 126.62 213.003C127.978 224.426 127.848 234.999 127.023 245.197C126.775 248.153 126.296 251.002 125.223 253.278C124.173 255.514 122.725 256.112 120.923 255.072C119.831 254.442 118.61 253.21 117.268 251.376C114.058 246.983 111.799 242.083 109.595 237.204C101.308 218.886 94.7142 200.479 89.3332 182.027C87.7722 176.694 85.0872 172.462 81.0122 170.039C75.9932 167.044 70.9802 164.096 65.9692 161.202C60.9582 158.309 55.9482 155.47 50.9362 152.691C44.9022 149.322 43.0952 151.663 45.5312 159.365C56.3702 193.56 68.4462 227.716 84.2312 261.571C92.3432 278.953 101.678 295.568 113.723 310.47C125.831 325.45 138.778 335.959 152.38 343.813C154.125 344.82 155.883 345.785 157.648 346.709C164.917 350.524 167.107 349.595 167.463 341.479C167.718 335.916 168.29 330.581 170.743 326.872C172.232 324.625 174.186 324.199 176.448 325.505C177.853 326.316 179.377 327.796 180.982 329.924C183.076 332.704 184.822 335.693 186.498 338.766C190.573 346.269 194.493 353.843 198.73 361.28C203.568 369.766 209.248 376.597 216.233 380.63C216.898 381.013 217.575 381.373 218.263 381.704L248.987 399.46C253.926 401.93 256.523 396.449 253.694 388.475C251.7 382.858 249.088 377.379 246.33 371.942C240.081 359.684 232.718 348.036 225.751 336.154C219.46 325.444 219.07 321.107 224.17 315.9C229.719 310.179 235.709 305.068 241.304 299.418C246.536 294.127 251.891 288.95 254.658 280.619C256.42 275.305 254.885 271.63 249.255 267.278C248.299 266.531 247.296 265.934 246.3 265.36L212.891 246.043C212.798 245.988 212.706 245.933 212.615 245.88C208.668 243.602 206.456 244.394 205.027 247.682C203.051 252.216 201.006 256.71 198.645 260.808C193.309 270.151 187.341 278.704 178.996 284.043C177.447 285.029 175.762 286.351 173.448 285.015C173.008 284.761 172.545 284.411 172.056 283.945C168.225 280.118 167.12 272.206 167.189 269.794L167.284 225.464C166.552 218.714 165.349 215.195 159.882 210.795Z" fill="white"/>
<path d="M345.565 474.907L287.179 508.837C295.619 503.932 300.853 493.504 300.894 478.682L359.28 444.752C359.238 459.573 354.004 470.002 345.565 474.907Z" fill="#668EBC"/>
<path d="M14.3882 37.1036L72.7742 3.17364C81.3232 -1.79436 93.1622 -1.09336 106.228 6.45064L47.8422 40.3806C34.7762 32.8366 22.9382 32.1346 14.3882 37.1036Z" fill="#7799BF"/>
<path d="M301.568 240.981L359.954 207.05L359.28 444.752L300.894 478.682L301.568 240.981Z" fill="#81A2C8"/>
<path d="M47.8432 40.3806L106.23 6.44958L313.092 125.883L254.706 159.813L47.8432 40.3806Z" fill="#8BAACD"/>
<path d="M254.706 159.813L313.092 125.883C339.057 140.873 360.038 177.21 359.954 207.051L301.568 240.981C301.653 211.14 280.67 174.804 254.706 159.813Z" fill="#AEC1D7"/>
</g>
<defs>
<clipPath id="clip0">
<rect width="360" height="512" fill="white"/>
</clipPath>
</defs>
</svg>
