<svg width="360" height="512" viewBox="0 0 360 512" fill="none" xmlns="http://www.w3.org/2000/svg">
<path d="M313.092 125.883L106.23 6.44967C93.1643 -1.09433 81.3253 -1.79533 72.7763 3.17267L14.3883 37.1037C14.4153 37.0877 14.4453 37.0757 14.4733 37.0587C5.98526 41.9427 0.717253 52.3877 0.674253 67.2597L0.000257335 304.962C-0.0847427 334.797 20.8983 371.14 46.8623 386.13L253.725 505.562C267.166 513.321 279.298 513.824 287.895 508.38C287.656 508.531 287.423 508.694 287.177 508.838L345.563 474.908C354.003 470.003 359.235 459.575 359.278 444.753L359.952 207.051C360.039 177.209 339.056 140.873 313.092 125.883Z" fill="#3D99E2"/>
<path d="M345.565 474.907L287.179 508.837C295.619 503.932 300.853 493.504 300.894 478.682L359.28 444.752C359.238 459.573 354.004 470.002 345.565 474.907Z" fill="#5AAAE7"/>
<path d="M14.3883 37.1036L72.7743 3.17364C81.3233 -1.79436 93.1623 -1.09336 106.228 6.45064L47.8423 40.3806C34.7763 32.8366 22.9383 32.1346 14.3883 37.1036Z" fill="#78BAEC"/>
<path d="M301.568 240.981L359.954 207.05L359.28 444.752L300.894 478.682L301.568 240.981Z" fill="#78BAEC"/>
<path d="M47.8433 40.3806L106.23 6.44958L313.092 125.883L254.706 159.813L47.8433 40.3806Z" fill="#97C7EF"/>
<path d="M254.706 159.813L313.092 125.883C339.057 140.873 360.038 177.21 359.954 207.051L301.568 240.981C301.653 211.14 280.67 174.804 254.706 159.813Z" fill="#B3D8F5"/>
<path d="M119.884 316.517C118.932 315.967 117.981 314.787 117.657 313.286L108.035 268.358C106.935 263.232 108.575 259.38 112.034 258.929L202.255 247.189C202.54 247.152 202.827 247.231 203.097 247.386C204.365 248.118 205.288 250.577 204.141 251.131L129.603 287.604C126.982 288.887 125.289 291.662 124.798 295.441L122.209 315.533C122.025 316.954 120.954 317.135 119.884 316.517ZM242.295 228.801C241.651 228.429 240.987 228.181 240.326 228.094L51.0073 202.749C46.3313 202.117 46.3523 209.733 51.0243 214.448L97.0443 260.806L114.69 337.005C115.431 340.202 117.614 343.093 119.873 344.397C121.059 345.081 122.265 345.329 123.295 344.956L149.042 335.73C150.449 335.223 152.166 335.55 153.886 336.543C155.463 337.453 157.041 338.923 158.382 340.823L204.596 406.213C205.574 407.596 206.68 408.611 207.766 409.239C210.208 410.649 212.551 410.097 213.115 407.354L247.574 239.382C248.316 235.765 245.561 230.686 242.295 228.801Z" fill="white"/>
</svg>
