<svg width="360" height="512" viewBox="0 0 360 512" fill="none" xmlns="http://www.w3.org/2000/svg">
<path d="M313.092 125.883L106.23 6.44967C93.1643 -1.09433 81.3253 -1.79533 72.7763 3.17267L14.3883 37.1037C14.4153 37.0877 14.4453 37.0757 14.4733 37.0587C5.98526 41.9427 0.717253 52.3877 0.674253 67.2597L0.000257335 304.962C-0.0847427 334.797 20.8983 371.14 46.8623 386.13L253.725 505.562C267.166 513.321 279.298 513.824 287.895 508.38C287.656 508.531 287.423 508.694 287.177 508.838L345.563 474.908C354.003 470.003 359.235 459.575 359.278 444.753L359.952 207.051C360.039 177.209 339.056 140.873 313.092 125.883Z" fill="#2E2E30"/>
<path d="M345.565 474.907L287.179 508.837C295.619 503.932 300.853 493.504 300.894 478.682L359.28 444.752C359.238 459.573 354.004 470.002 345.565 474.907Z" fill="#3E3D43"/>
<path d="M14.3882 37.1036L72.7742 3.17364C81.3232 -1.79436 93.1622 -1.09336 106.228 6.45064L47.8422 40.3806C34.7762 32.8366 22.9382 32.1346 14.3882 37.1036Z" fill="#57565C"/>
<path d="M301.568 240.981L359.954 207.05L359.28 444.752L300.894 478.682L301.568 240.981Z" fill="#57565C"/>
<path d="M47.8432 40.3807L106.23 6.44971L313.092 125.883L254.706 159.813L47.8432 40.3807Z" fill="#77767E"/>
<path d="M254.706 159.813L313.092 125.883C339.057 140.873 360.038 177.21 359.954 207.051L301.568 240.981C301.653 211.14 280.67 174.804 254.706 159.813Z" fill="#898890"/>
<path d="M246.298 404.375C246.42 407.197 246.815 416.369 246.875 417.78L179.824 304.908L240.405 256.218C241.288 261.046 241.877 265.804 241.728 271.251L246.298 404.375ZM147.728 316.504L233.026 248.041C230.859 244.981 220.602 238.807 217.725 236.497L65.0701 137.229C60.678 135.485 57.4179 135.06 57.4179 135.06L147.728 316.504ZM170.633 312.593L151.016 329.5C149.929 330.624 148.558 331.221 147.159 331.18C145.759 331.14 144.425 330.464 143.405 329.279L110.788 270.095L57.3827 303.98C59.6734 307.323 62.8462 310.131 62.8462 310.131L230.958 424.956C232.605 425.509 239.281 429.834 240.867 428.976L170.633 312.593ZM55.2107 147.998C53.7294 151.667 56.4916 245.165 56.3199 250.614L57.0349 271.806C57.0349 271.806 57.2222 289.133 57.2565 292.31L106.664 261.78L55.2107 147.998Z" fill="white"/>
</svg>
