<svg width="360" height="512" viewBox="0 0 360 512" fill="none" xmlns="http://www.w3.org/2000/svg">
<path d="M313.092 125.883L106.23 6.44967C93.1643 -1.09433 81.3253 -1.79533 72.7763 3.17267L14.3883 37.1037C14.4153 37.0877 14.4453 37.0757 14.4733 37.0587C5.98526 41.9427 0.717253 52.3877 0.674253 67.2597L0.000257335 304.962C-0.0847427 334.797 20.8983 371.14 46.8623 386.13L253.725 505.562C267.166 513.321 279.298 513.824 287.895 508.38C287.656 508.531 287.423 508.694 287.177 508.838L345.563 474.908C354.003 470.003 359.235 459.575 359.278 444.753L359.952 207.051C360.039 177.209 339.056 140.873 313.092 125.883Z" fill="#FF9911"/>
<path d="M345.565 474.907L287.179 508.837C295.619 503.932 300.853 493.504 300.894 478.682L359.28 444.752C359.238 459.573 354.004 470.002 345.565 474.907Z" fill="#FFA834"/>
<path d="M14.3883 37.1036L72.7743 3.17364C81.3233 -1.79436 93.1623 -1.09336 106.228 6.45064L47.8423 40.3806C34.7763 32.8366 22.9383 32.1346 14.3883 37.1036Z" fill="#FFB657"/>
<path d="M301.568 240.981L359.954 207.05L359.28 444.752L300.894 478.682L301.568 240.981Z" fill="#FFB657"/>
<path d="M47.8433 40.3807L106.23 6.44971L313.092 125.883L254.706 159.813L47.8433 40.3807Z" fill="#FEC377"/>
<path d="M254.706 159.813L313.092 125.883C339.057 140.873 360.038 177.21 359.954 207.051L301.568 240.981C301.653 211.14 280.67 174.804 254.706 159.813Z" fill="#FEDAAA"/>
<path d="M240.298 396.375C240.42 399.197 240.815 408.369 240.875 409.78L173.824 296.908L234.405 248.218C235.288 253.046 235.877 257.804 235.728 263.251L240.298 396.375ZM141.728 308.504L227.026 240.041C224.859 236.981 214.602 230.807 211.725 228.497L59.0701 129.229C54.678 127.485 51.4179 127.06 51.4179 127.06L141.728 308.504ZM164.633 304.593L145.016 321.5C143.929 322.624 142.558 323.221 141.159 323.18C139.759 323.14 138.425 322.464 137.405 321.279L104.788 262.095L51.3827 295.98C53.6734 299.323 56.8462 302.131 56.8462 302.131L224.958 416.956C226.605 417.509 233.281 421.834 234.867 420.976L164.633 304.593ZM49.2107 139.998C47.7294 143.667 50.4916 237.165 50.3199 242.614L51.0349 263.806C51.0349 263.806 51.2222 281.133 51.2565 284.31L100.664 253.78L49.2107 139.998Z" fill="white"/>
</svg>
